:FULLY-SPECIFIED
:FORCE-ALL-JOINTS-BE-3DOF
:DEGREES
714
root -11.7101 13.9154 -38.3003 511.903 -61.6129 213.469
lfemur -65.1524 24.8413 -1.14541
ltibia 75.7313 0 0
lfoot -8.38967 -7.78254 0
ltoes -3.76598 0 0
rfemur 9.21288 -10.6698 11.8168
rtibia 40.748 0 0
rfoot -24.8025 -27.7399 0
rtoes -28.6088 0 0
lowerback 12.2329 1.43572 8.82392
upperback -1.69531 3.47472 5.87973
thorax -8.58475 1.28562 0.703894
lowerneck -4.0156 4.9539 0.983659
upperneck 3.31785 6.51915 0.760707
head 1.71357 3.28006 0.247274
lclavicle -5.93074e-15 2.51741e-14 0
lhumerus 63.0634 14.9599 107.873
lradius 12.1418 0 0
lwrist -70.6647 0 0
lhand -32.9891 40.3686 0
lfingers 7.12502 0 0
lthumb -6.59882 67.8772 0
rclavicle -2.19955e-14 -3.27398e-14 0
rhumerus -75.1504 19.3379 -95.4358
rradius 114.771 0 0
rwrist -66.1885 0 0
rhand -8.40699 -40.351 0
rfingers 7.12502 0 0
rthumb 17.4897 -69.5921 0
715
root -11.718 13.9096 -38.3053 511.849 -61.7512 213.576
lfemur -65.2576 24.8843 -1.18494
ltibia 75.8464 0 0
lfoot -8.44835 -7.8184 0
ltoes -3.8338 0 0
rfemur 9.28203 -10.7202 11.8096
rtibia 40.6867 0 0
rfoot -24.8035 -27.7438 0
rtoes -28.973 0 0
lowerback 12.2268 1.43666 8.87247
upperback -1.73131 3.4857 5.83519
thorax -8.61478 1.28691 0.627392
lowerneck -3.92437 4.90705 0.903776
upperneck 3.33837 6.45654 0.886993
head 1.69679 3.25039 0.29516
lclavicle -7.70539e-15 2.32181e-14 0
lhumerus 63.0521 14.9603 107.775
lradius 12.1288 0 0
lwrist -70.6264 0 0
lhand -33.0119 40.6097 0
lfingers 7.12502 0 0
lthumb -6.56692 67.7164 0
rclavicle -2.30052e-14 -3.19381e-14 0
rhumerus -75.1535 19.3215 -95.4387
rradius 114.686 0 0
rwrist -65.977 0 0
rhand -8.07315 -40.0307 0
rfingers 7.12502 0 0
rthumb 17.8132 -69.2388 0
716
root -11.7251 13.9034 -38.3128 511.669 -61.8318 213.799
lfemur -65.3628 24.9274 -1.22447
ltibia 75.9616 0 0
lfoot -8.50703 -7.85426 0
ltoes -3.90161 0 0
rfemur 9.35119 -10.7706 11.8025
rtibia 40.6253 0 0
rfoot -24.8046 -27.7478 0
rtoes -29.3372 0 0
lowerback 12.2178 1.38088 8.87114
upperback -1.69375 3.406 5.86615
thorax -8.57428 1.2505 0.676424
lowerneck -4.24429 4.78152 0.853209
upperneck 3.60023 6.27983 1.01345
head 1.8327 3.16561 0.35231
lclavicle -9.48004e-15 2.1262e-14 0
lhumerus 63.0408 14.9607 107.677
lradius 12.1157 0 0
lwrist -70.5882 0 0
lhand -33.0346 40.8507 0
lfingers 7.12502 0 0
lthumb -6.53502 67.5556 0
rclavicle -2.40149e-14 -3.11363e-14 0
rhumerus -75.1566 19.3051 -95.4416
rradius 114.602 0 0
rwrist -65.7655 0 0
rhand -7.73931 -39.7104 0
rfingers 7.12502 0 0
rthumb 18.1367 -68.8854 0
717
root -11.7322 13.896 -38.3187 511.554 -61.8978 213.978
lfemur -65.4679 24.9704 -1.26399
ltibia 76.0767 0 0
lfoot -8.5657 -7.89012 0
ltoes -3.96943 0 0
rfemur 9.42034 -10.821 11.7953
rtibia 40.5639 0 0
rfoot -24.8056 -27.7517 0
rtoes -29.7014 0 0
lowerback 12.162 1.34315 8.88394
upperback -1.68113 3.34861 5.88281
thorax -8.5314 1.22388 0.699209
lowerneck -4.54037 4.76204 0.317147
upperneck 3.82351 6.25781 1.53309
head 1.92355 3.16077 0.614645
lclavicle -1.12547e-14 1.9306e-14 0
lhumerus 63.0295 14.961 107.579
lradius 12.1026 0 0
lwrist -70.5499 0 0
lhand -33.0574 41.0918 0
lfingers 7.12502 0 0
lthumb -6.50312 67.3949 0
rclavicle -2.50245e-14 -3.03345e-14 0
rhumerus -75.1597 19.2887 -95.4445
rradius 114.517 0 0
rwrist -65.5541 0 0
rhand -7.40547 -39.3901 0
rfingers 7.12502 0 0
rthumb 18.4602 -68.5321 0
